<svg width="140" height="48" viewBox="0 0 140 48" fill="none" xmlns="http://www.w3.org/2000/svg">
<g id="Logo">
<g id="Silver">
<path id="Vector" d="M17.8647 41.0374C17.8428 41.0496 17.8208 41.0609 17.7987 41.0713C17.8033 41.0745 17.8079 41.0776 17.8125 41.0807C18.0957 41.2743 18.4335 41.5243 18.8012 41.8116C19.5368 42.3863 20.4056 43.1208 21.2171 43.8736L24.1919 46.6335L25.1259 47.5H23.8518H19.8091C16.8528 47.5 15.1844 47.1639 14.1809 46.0679C13.4129 45.2661 12.7887 44.5504 12.2998 43.6396C11.8089 42.7252 11.4694 41.6435 11.2207 40.1189C10.7273 37.0942 10.5751 32.2028 10.3848 23.1623L10.0084 5.56464L7.60288 3.6611L5.01285 1.68224L3.92646 0.852203L5.29202 0.785526L8.18178 0.644421C8.80659 0.591812 9.31232 0.559032 9.70629 0.564949C10.0813 0.570576 10.4493 0.609703 10.7289 0.774757C10.8844 0.866596 11.0127 0.996922 11.0949 1.16848C11.1394 1.26121 11.1656 1.35605 11.1796 1.44896C11.2406 1.15062 11.3922 0.885708 11.6649 0.713154C12.0094 0.495152 12.4253 0.505367 12.7891 0.596447C13.5219 0.779919 14.3837 1.36898 15.1442 2.22173C16.7165 3.90652 17.6802 5.95495 18.2528 9.51166C18.8225 13.0503 19.0124 18.1299 19.0124 25.9116C19.0124 32.6573 18.9938 36.3653 18.8199 38.3916C18.7343 39.3886 18.6066 40.0632 18.374 40.4977C18.2485 40.7321 18.083 40.9161 17.8647 41.0374ZM11.5998 2.60373C11.3473 2.45959 11.2056 2.21508 11.162 1.95615C11.1242 2.17257 11.0556 2.40507 10.979 2.6418L10.9748 2.65482L10.9699 2.66759C10.817 3.06473 10.8085 3.42051 10.9282 3.76645C11.0517 4.12376 11.3271 4.51356 11.8184 4.93735C12.2025 5.25805 12.4747 5.48084 12.6815 5.6247C12.7553 5.67609 12.8108 5.70987 12.8508 5.73205C12.91 5.61882 12.9796 5.43957 13.0825 5.15315C13.3045 4.50251 13.2425 3.68826 13.0207 3.10905C12.9083 2.81559 12.7781 2.6436 12.6845 2.57287C12.6538 2.54969 12.6363 2.54422 12.6314 2.5431C12.6267 2.54412 12.6157 2.54777 12.5969 2.55936L12.5872 2.56541L12.5771 2.571C12.2751 2.7391 11.9129 2.7825 11.5998 2.60373ZM14.9785 40.7611C14.9775 40.7574 14.9765 40.7536 14.9755 40.7499C14.822 41.4577 15.0605 42.1093 15.7074 42.6549C16.124 43.0062 16.4416 43.2537 16.6925 43.4142C16.9536 43.5812 17.0836 43.6144 17.1346 43.6168C17.1348 43.6168 17.1351 43.617 17.1355 43.6172C17.1395 43.619 17.1538 43.6254 17.2073 43.5641C17.2874 43.4723 17.3856 43.2991 17.516 42.9885C17.5428 42.9216 17.5505 42.8773 17.5523 42.8529C17.542 42.8487 17.5272 42.8436 17.5067 42.8386C17.4422 42.8229 17.338 42.8131 17.1856 42.8273L17.1625 42.8294H17.1394C16.1286 42.8294 15.314 41.9285 14.9808 40.7692L14.9807 40.7692L14.9785 40.7611Z" fill="#F97316" stroke="black"/>
<path id="Vector_2" d="M21.3573 1.23475C21.5308 1.37907 21.6986 1.54498 21.846 1.7242C21.9311 1.46836 22.0633 1.23185 22.2321 1.03611C22.4889 0.738318 22.8648 0.499952 23.3163 0.499952C23.8376 0.499952 24.2894 0.558479 24.6308 0.705467C24.9888 0.859614 25.3021 1.15507 25.3131 1.61603C25.3224 2.00602 25.1025 2.36831 24.8429 2.66974C24.5694 2.98724 24.1769 3.32299 23.6839 3.67083C23.146 4.06289 22.6351 4.40994 22.2323 4.64352C22.0335 4.7588 21.8416 4.85788 21.6765 4.91828C21.596 4.94771 21.4956 4.97791 21.3899 4.98667C21.2998 4.99412 21.091 4.9957 20.9167 4.83405C20.8327 4.75605 20.7421 4.63199 20.6666 4.52277C20.5809 4.39864 20.4802 4.24186 20.3719 4.06384C20.1564 3.70933 19.9031 3.25754 19.6686 2.78685C19.497 2.46807 19.3599 2.19606 19.266 1.9704C19.179 1.76122 19.0977 1.5216 19.1078 1.29597C19.1135 1.16926 19.1491 1.01772 19.2553 0.882462C19.3624 0.746075 19.5024 0.675695 19.6261 0.641677C19.8427 0.582144 20.0862 0.613881 20.2801 0.649876L20.2987 0.653328L20.317 0.658176C20.6781 0.753888 21.0475 0.977096 21.3573 1.23475Z" fill="#B3B3B3" stroke="black"/>
<path id="Vector_3" d="M2.86421 47.4291L1.48662 47.3994L2.5627 46.5388L4.77141 44.7723C5.30144 44.3333 5.72607 43.9891 6.07531 43.7458C6.41598 43.5085 6.74359 43.3237 7.07471 43.2691C7.45266 43.2068 7.76679 43.3221 8.03812 43.5273C8.2803 43.7105 8.51231 43.9841 8.75281 44.2759L8.75282 44.2759L8.75581 44.2796C9.15843 44.7776 9.47434 45.222 9.6397 45.6096C9.80723 46.0022 9.87562 46.4869 9.51749 46.8778C9.22594 47.196 8.7432 47.3262 8.24489 47.3976C7.71425 47.4737 7.01703 47.5 6.15493 47.5V47.5001L6.14415 47.4999L2.86421 47.4291Z" fill="#B3B3B3" stroke="black"/>
</g>
<g id="I">
<path id="Vector_4" d="M119.157 14.6368C118.804 15.4998 118.892 16.6094 119.421 17.3492C120.656 19.0752 123.388 17.5957 122.948 15.4998C122.419 13.5271 119.95 12.9107 119.157 14.6368Z" fill="black"/>
<path id="Vector_5" d="M118.715 29.4322C118.715 37.1995 118.891 38.0625 120.478 38.0625C122.065 38.0625 122.241 37.1995 122.241 29.4322C122.241 21.6648 122.065 20.8018 120.478 20.8018C118.891 20.8018 118.715 21.6648 118.715 29.4322Z" fill="black"/>
</g>
<path id="Vector_6" d="M96.9806 16.7702C96.3635 17.0168 95.8346 18.1264 95.8346 19.1127C95.8346 20.0991 95.2175 20.8388 94.5123 20.8388C93.807 20.8388 93.1899 21.7019 93.1899 22.6882C93.1899 23.6745 93.807 24.5375 94.5123 24.5375C95.482 24.5375 95.8346 25.8937 95.8346 29.839C95.8346 32.798 96.2753 35.757 96.8924 36.62C98.3911 38.716 102.005 38.4694 102.005 36.2502C102.005 35.2638 101.388 34.4008 100.683 34.4008C99.7134 34.4008 99.3608 33.0446 99.3608 29.4692C99.3608 25.8937 99.7134 24.5375 100.683 24.5375C101.388 24.5375 102.005 23.6745 102.005 22.6882C102.005 21.7019 101.388 20.8388 100.683 20.8388C99.9778 20.8388 99.3608 19.7292 99.3608 18.373C99.3608 15.9072 98.92 15.5373 96.9806 16.7702Z" fill="black"/>
<path id="Vector_7" d="M29.2007 28.8834C29.2007 35.9897 29.377 36.7793 30.9638 36.7793C32.4624 36.7793 32.7269 35.9897 32.7269 31.929C32.7269 26.2891 33.7847 23.8075 35.7241 24.7099C36.782 25.2739 37.1346 26.9659 37.1346 31.1394C37.1346 35.9897 37.3991 36.7793 38.8977 36.7793C40.4845 36.7793 40.6608 35.9897 40.6608 30.237C40.6608 23.2435 39.6911 20.9876 36.6938 20.9876C35.636 20.9876 34.4018 21.5516 33.7847 22.3412C32.9913 23.3563 32.7269 23.3563 32.7269 22.3412C32.7269 21.5516 31.9335 20.9876 30.9638 20.9876C29.377 20.9876 29.2007 21.7772 29.2007 28.8834Z" fill="black"/>
<path id="Vector_8" d="M77.3428 29.4312C77.3428 37.1985 77.5191 38.0615 79.1059 38.0615C80.6045 38.0615 80.869 37.1985 80.869 32.76C80.869 26.5955 81.9268 23.8831 83.8662 24.8694C84.9241 25.4859 85.2767 27.3352 85.2767 31.897C85.2767 37.1985 85.5411 38.0615 87.0398 38.0615C88.6266 38.0615 88.8029 37.1985 88.8029 30.9107C88.8029 23.2666 87.8332 20.8008 84.8359 20.8008C83.7781 20.8008 82.5439 21.4173 81.9268 22.2803C81.1334 23.3899 80.869 23.3899 80.869 22.2803C80.869 21.4173 80.0756 20.8008 79.1059 20.8008C77.5191 20.8008 77.3428 21.6639 77.3428 29.4312Z" fill="black"/>
<path id="Vector_9" d="M45.0773 22.4542C45.2536 23.3172 46.1351 27.2625 47.1048 31.2078C48.6034 37.4956 49.0442 38.3587 50.8954 37.9888C52.5704 37.7422 53.3638 36.2627 54.6861 31.4544C57.6833 20.6048 57.5952 20.7281 55.3913 21.2213C54.1572 21.4678 53.1875 22.5775 52.923 24.0569C52.7467 25.4131 52.2178 27.879 51.777 29.605C50.8954 32.564 50.8073 32.4407 49.6613 26.7693C48.6916 22.3309 47.9864 20.9747 46.5759 20.9747C45.518 20.9747 44.9009 21.5911 45.0773 22.4542Z" fill="black"/>
<path id="Vector_10" d="M63.2579 23.2956C58.3213 30.1998 63.9632 40.9261 70.6629 37.3507C73.1313 35.9945 72.2497 33.5287 69.6051 34.1451C68.0183 34.3917 66.696 33.8986 65.9907 32.6657C64.9329 30.9396 65.2855 30.693 68.8998 30.693C72.3379 30.693 72.9549 30.3231 72.9549 28.2272C72.9549 24.7751 69.8695 20.8298 67.2249 20.8298C65.9907 20.8298 64.2276 21.9394 63.2579 23.2956ZM69.4288 25.7614C69.4288 26.3778 68.3709 26.9943 67.1367 26.9943C65.9026 26.9943 65.1092 26.5011 65.4618 25.7614C65.7263 25.0216 66.7841 24.5285 67.7538 24.5285C68.6354 24.5285 69.4288 25.0216 69.4288 25.7614Z" fill="black"/>
<path id="Vector_11" d="M106.393 29.4312C106.393 37.1985 106.569 38.0615 108.068 38.0615C109.478 38.0615 109.831 37.0752 110.095 32.76C110.271 28.8147 110.8 27.3352 112.387 26.3489C113.445 25.7325 114.326 24.1297 114.326 23.0201C114.326 20.431 112.563 20.0611 110.977 22.2803C110.183 23.3899 109.919 23.3899 109.919 22.2803C109.919 21.4173 109.125 20.8008 108.156 20.8008C106.569 20.8008 106.393 21.6639 106.393 29.4312Z" fill="black"/>
<path id="Vector_12" d="M128.352 21.7872C128.352 22.4036 128.969 23.8831 129.674 25.2393C131.437 28.4448 131.349 30.2942 129.145 34.4861L127.382 38.0615H129.498C130.732 38.0615 132.231 36.9519 132.936 35.3491L134.258 32.6367L135.316 35.3491C135.845 36.8286 137.167 38.0615 138.049 38.0615C140.253 38.0615 140.253 37.1985 138.137 32.6367C136.374 29.0613 136.374 28.938 138.137 25.6092C140.253 21.4173 140.253 20.8008 138.049 20.8008C137.167 20.8008 135.845 22.0337 135.316 23.5132L134.258 26.2256L132.936 23.5132C131.702 20.9241 128.352 19.6912 128.352 21.7872Z" fill="black"/>
</g>
</svg>
