<svg width="73" height="132" viewBox="0 0 73 132" fill="none" xmlns="http://www.w3.org/2000/svg">
<path d="M50.1138 113.124C50.0495 113.157 49.9849 113.189 49.92 113.217C49.9335 113.226 49.947 113.235 49.9605 113.243C50.7925 113.779 51.7849 114.47 52.8651 115.265C55.0262 116.855 57.5785 118.886 59.9625 120.968L68.7019 128.602L71.4458 130.999H67.7028H55.8261C47.1411 130.999 42.2396 130.069 39.2916 127.038C37.0353 124.82 35.2015 122.84 33.7653 120.321C32.3231 117.792 31.3257 114.8 30.5951 110.583C29.1456 102.217 28.6984 88.6876 28.1394 63.6821L27.0336 15.0081L19.9666 9.74303L12.3576 4.26963L9.16602 1.9738L13.1778 1.78937L21.6673 1.39908C23.5029 1.25357 24.9886 1.1629 26.146 1.17927C27.2477 1.19483 28.3288 1.30306 29.1503 1.75958C29.6071 2.01361 29.984 2.37408 30.2255 2.8486C30.3562 3.10508 30.4332 3.36741 30.4743 3.62439C30.6535 2.7992 31.0989 2.06647 31.9 1.58919C32.9121 0.986215 34.1339 1.01447 35.2027 1.26639C37.3555 1.77386 39.8873 3.40317 42.1215 5.76182C46.7407 10.4218 49.5718 16.0877 51.254 25.9253C52.9277 35.713 53.4856 49.7628 53.4856 71.2865C53.4856 89.9447 53.4309 100.201 52.92 105.805C52.6686 108.563 52.2934 110.429 51.6101 111.631C51.2414 112.279 50.7552 112.788 50.1138 113.124ZM31.7088 6.81841C30.967 6.41973 30.5507 5.74343 30.4226 5.02724C30.3116 5.62585 30.11 6.26893 29.885 6.92371L29.8727 6.95972L29.8583 6.99504C29.4091 8.09351 29.3841 9.07757 29.7358 10.0344C30.0986 11.0227 30.9077 12.1009 32.351 13.2731C33.4794 14.1601 34.2791 14.7763 34.8866 15.1742C35.1034 15.3164 35.2665 15.4098 35.384 15.4712C35.5579 15.158 35.7624 14.6622 36.0647 13.8699C36.7169 12.0703 36.5347 9.81815 35.8831 8.2161C35.5529 7.4044 35.1704 6.92869 34.8954 6.73305C34.8052 6.66894 34.7538 6.65381 34.7394 6.65071C34.7256 6.65353 34.6933 6.66363 34.6381 6.69569L34.6096 6.71242L34.5799 6.72788C33.6927 7.19284 32.6286 7.31288 31.7088 6.81841ZM41.6348 112.359C41.6318 112.349 41.6289 112.339 41.6259 112.328C41.175 114.286 41.8757 116.088 43.7761 117.597C45 118.569 45.9331 119.254 46.6701 119.698C47.4372 120.16 47.8191 120.251 47.969 120.258C47.9678 120.257 47.9695 120.258 47.969 120.258C47.9807 120.263 48.0254 120.282 48.1825 120.112C48.4179 119.858 48.7063 119.379 49.0894 118.52C49.1682 118.335 49.1908 118.213 49.1961 118.145C49.1658 118.134 49.1223 118.119 49.0621 118.106C48.8726 118.062 48.5665 118.035 48.1188 118.074L48.0509 118.08H47.9831C45.0135 118.08 42.6204 115.588 41.6415 112.382L41.6348 112.359Z" fill="#F97316"/>
<path d="M47.969 120.258C47.8191 120.251 47.4372 120.16 46.6701 119.698C45.9331 119.254 45 118.569 43.7761 117.597C41.8757 116.088 41.175 114.286 41.6259 112.328C41.6289 112.339 41.6318 112.349 41.6348 112.359L41.6415 112.382C42.6204 115.588 45.0135 118.08 47.9831 118.08H48.0509L48.1188 118.074C48.5665 118.035 48.8726 118.062 49.0621 118.106C49.1223 118.119 49.1658 118.134 49.1961 118.145C49.1908 118.213 49.1682 118.335 49.0894 118.52C48.7063 119.379 48.4179 119.858 48.1825 120.112C48.0254 120.282 47.9807 120.263 47.969 120.258ZM47.969 120.258C47.9695 120.258 47.9678 120.257 47.969 120.258ZM50.1138 113.124C50.0495 113.157 49.9849 113.189 49.92 113.217C49.9335 113.226 49.947 113.235 49.9605 113.243C50.7925 113.779 51.7849 114.47 52.8651 115.265C55.0262 116.855 57.5785 118.886 59.9625 120.968L68.7019 128.602L71.4458 130.999H67.7028H55.8261C47.1411 130.999 42.2396 130.069 39.2916 127.038C37.0353 124.82 35.2015 122.84 33.7653 120.321C32.3231 117.792 31.3257 114.8 30.5951 110.583C29.1456 102.217 28.6984 88.6876 28.1394 63.6821L27.0336 15.0081L19.9666 9.74303L12.3576 4.26963L9.16602 1.9738L13.1778 1.78937L21.6673 1.39908C23.5029 1.25357 24.9886 1.1629 26.146 1.17927C27.2477 1.19483 28.3288 1.30306 29.1503 1.75958C29.6071 2.01361 29.984 2.37408 30.2255 2.8486C30.3562 3.10508 30.4332 3.36741 30.4743 3.62439C30.6535 2.7992 31.0989 2.06647 31.9 1.58919C32.9121 0.986215 34.1339 1.01447 35.2027 1.26639C37.3555 1.77386 39.8873 3.40317 42.1215 5.76182C46.7407 10.4218 49.5718 16.0877 51.254 25.9253C52.9277 35.713 53.4856 49.7628 53.4856 71.2865C53.4856 89.9447 53.4309 100.201 52.92 105.805C52.6686 108.563 52.2934 110.429 51.6101 111.631C51.2414 112.279 50.7552 112.788 50.1138 113.124ZM31.7088 6.81841C30.967 6.41973 30.5507 5.74343 30.4226 5.02724C30.3116 5.62585 30.11 6.26893 29.885 6.92371L29.8727 6.95972L29.8583 6.99504C29.4091 8.09351 29.3841 9.07757 29.7358 10.0344C30.0986 11.0227 30.9077 12.1009 32.351 13.2731C33.4794 14.1601 34.2791 14.7763 34.8866 15.1742C35.1034 15.3164 35.2665 15.4098 35.384 15.4712C35.5579 15.158 35.7624 14.6622 36.0647 13.8699C36.7169 12.0703 36.5347 9.81815 35.8831 8.2161C35.5529 7.4044 35.1704 6.92869 34.8954 6.73305C34.8052 6.66894 34.7538 6.65381 34.7394 6.65071C34.7256 6.65353 34.6933 6.66363 34.6381 6.69569L34.6096 6.71242L34.5799 6.72788C33.6927 7.19284 32.6286 7.31288 31.7088 6.81841Z" stroke="black"/>
<path d="M60.3787 3.03241C60.8884 3.43159 61.3814 3.89048 61.8144 4.38619C62.0644 3.67856 62.4528 3.02438 62.9487 2.48298C63.7031 1.65931 64.8074 1 66.1338 1C67.6653 1 68.9926 1.16188 69.9956 1.56844C71.0473 1.9948 71.9677 2.81202 72.0001 4.087C72.0274 5.16569 71.3813 6.16776 70.6187 7.0015C69.8152 7.87968 68.6621 8.80835 67.2138 9.77045C65.6335 10.8549 64.1326 11.8148 62.9493 12.4609C62.3652 12.7797 61.8015 13.0538 61.3164 13.2208C61.0799 13.3022 60.785 13.3858 60.4744 13.41C60.2098 13.4306 59.5963 13.435 59.0843 12.9878C58.8375 12.7721 58.5713 12.429 58.3495 12.1269C58.0978 11.7835 57.8019 11.3499 57.4838 10.8575C56.8507 9.87694 56.1065 8.62732 55.4176 7.32542C54.9135 6.44369 54.5107 5.69133 54.2348 5.06717C53.9793 4.48859 53.7404 3.82582 53.7701 3.20174C53.7868 2.85126 53.8914 2.43211 54.2034 2.058C54.518 1.68076 54.9293 1.48609 55.2927 1.392C55.9291 1.22734 56.6444 1.31512 57.2141 1.41468L57.2687 1.42423L57.3225 1.43764C58.3833 1.70237 59.4685 2.31975 60.3787 3.03241Z" fill="#B3B3B3" stroke="black"/>
<path d="M6.04709 130.804L2 130.722L5.16131 128.341L11.6501 123.455C13.2072 122.241 14.4547 121.289 15.4807 120.616C16.4815 119.96 17.444 119.448 18.4167 119.297C19.5271 119.125 20.4499 119.444 21.247 120.012C21.9585 120.518 22.6401 121.275 23.3466 122.082L23.3555 122.092C24.5383 123.47 25.4664 124.699 25.9522 125.771C26.4443 126.857 26.6452 128.198 25.5931 129.279C24.7366 130.159 23.3184 130.519 21.8545 130.717C20.2956 130.927 18.2473 131 15.7146 131L15.6829 131L6.04709 130.804Z" fill="#B3B3B3" stroke="black"/>
</svg>
